# xmcd
#
# Track frame offsets: 
#        150
#        14582
#        32169
#        52212
#        73525
#        89940
#        109167
#        123302
#        133727
#        154012
#        166927
#        174357
#        198705
#        209407
#
# Disc length: 2894 seconds
#
# Revision: 2
# Processed by: cddbd v1.5.2PL0 Copyright (c) Steve Scherf et al.
# Submitted via: ExactAudioCopyFreeDBPlugin 1.0
#
DISCID=d20b4c0e
DTITLE=梁邦彦 - Echoes
DYEAR=2004
DGENRE=New Age
TTITLE0=Pure Imagination
TTITLE1=Eventide
TTITLE2=Flowers Of K
TTITLE3=ÀÌ¸§¾ø'Â ¹Ù¶÷ - A Wind With No Name
TTITLE4=A Dream On A Sunny Hill
TTITLE5=Tears and Arrows
TTITLE6=Red Desert
TTITLE7=In The Air
TTITLE8=Forbidden Feathers
TTITLE9=If I Could ...........3AM
TTITLE10=Farmer's Dawn
TTITLE11=Echoes
TTITLE12=Flowers Of K (Reprise)
TTITLE13=Road To The North
EXTD=YEAR: 2004
EXTT0=
EXTT1=
EXTT2=
EXTT3=
EXTT4=
EXTT5=
EXTT6=
EXTT7=
EXTT8=
EXTT9=
EXTT10=
EXTT11=
EXTT12=
EXTT13=
PLAYORDER=
